<svg width="48" height="48" viewBox="0 0 48 48" fill="none" xmlns="http://www.w3.org/2000/svg">
<circle cx="24" cy="24" r="24" fill="#F3F5F9"/>
<path d="M32.9996 28.0897V23.0978C32.9996 18.8079 32.9996 16.6649 31.6816 15.332C30.3636 14 28.2417 14 23.9998 14C19.7569 14 17.6359 14 16.318 15.332C15 16.6649 15 18.8099 15 23.0978V28.0907C15 31.1866 15 32.7356 15.734 33.4115C16.084 33.7345 16.526 33.9375 16.997 33.9915C17.9839 34.1045 19.1369 33.0846 21.4418 31.0456C22.4618 30.1446 22.9708 29.6936 23.5598 29.5756C23.8498 29.5156 24.1498 29.5156 24.4398 29.5756C25.0298 29.6936 25.5388 30.1446 26.5577 31.0456C28.8627 33.0846 30.0156 34.1045 31.0026 33.9905C31.4726 33.9375 31.9156 33.7345 32.2656 33.4115C32.9996 32.7356 32.9996 31.1866 32.9996 28.0897Z" stroke="#1E1E1E" stroke-width="1.1875"/>
<path d="M26.9997 17.9999H20.9999" stroke="#1E1E1E" stroke-width="1.1875" stroke-linecap="round"/>
</svg>
