<svg width="155" height="170" viewBox="0 0 155 170" fill="none" xmlns="http://www.w3.org/2000/svg">
<mask id="mask0_183_24" style="mask-type:alpha" maskUnits="userSpaceOnUse" x="0" y="0" width="155" height="170">
<rect width="155" height="170" fill="#F3F5F9"/>
</mask>
<g mask="url(#mask0_183_24)">
<rect width="155" height="170" fill="#F3F5F9"/>
<path d="M95.75 60H58.25C56.5928 60.0013 55.0039 60.6602 53.832 61.832C52.6602 63.0039 52.0013 64.5928 52 66.25V103.75C52.0013 105.407 52.6602 106.996 53.832 108.168C55.0039 109.34 56.5928 109.999 58.25 110H95.75C97.4072 109.999 98.9961 109.34 100.168 108.168C101.34 106.996 101.999 105.407 102 103.75V66.25C101.999 64.5928 101.34 63.0039 100.168 61.832C98.9961 60.6602 97.4072 60.0013 95.75 60ZM58.25 107.5C57.2554 107.5 56.3016 107.105 55.5983 106.402C54.8951 105.698 54.5 104.745 54.5 103.75V90.6875L63.9075 81.2825C64.7289 80.4645 65.8408 80.0053 67 80.0053C68.1592 80.0053 69.2711 80.4645 70.0925 81.2825L96.2625 107.448C96.0925 107.473 95.925 107.497 95.75 107.5H58.25ZM99.5 103.75C99.5 104.695 99.1375 105.55 98.5575 106.21L81.2675 88.92L83.9075 86.2825C84.7289 85.4645 85.8408 85.0053 87 85.0053C88.1592 85.0053 89.2711 85.4645 90.0925 86.2825L99.5 95.6875V103.75ZM99.5 92.1525L91.86 84.515C90.5698 83.2284 88.8221 82.5058 87 82.5058C85.1779 82.5058 83.4302 83.2284 82.14 84.515L79.5 87.15L71.86 79.515C70.5508 78.2649 68.8102 77.5674 67 77.5674C65.1898 77.5674 63.4492 78.2649 62.14 79.515L54.5 87.15V66.25C54.5 65.2554 54.8951 64.3016 55.5983 63.5983C56.3016 62.8951 57.2554 62.5 58.25 62.5H95.75C96.7446 62.5 97.6984 62.8951 98.4016 63.5983C99.1049 64.3016 99.5 65.2554 99.5 66.25V92.1525Z" fill="#868686"/>
</g>
</svg>
