<svg width="22" height="22" viewBox="0 0 22 22" fill="none" xmlns="http://www.w3.org/2000/svg">
<path d="M0.75 8.82767C0.75 7.84468 1.23157 6.92405 2.03901 6.36342L9.60934 1.10717C10.2952 0.630943 11.2048 0.630944 11.8907 1.10717L19.461 6.36342C20.2684 6.92405 20.75 7.84468 20.75 8.82767V18.315C20.75 19.4196 19.8546 20.315 18.75 20.315H2.75C1.64543 20.315 0.75 19.4196 0.75 18.315V8.82767Z" stroke="#868686" stroke-width="1.5" stroke-linejoin="round"/>
<path d="M7.41162 15.4719C7.41162 13.6281 8.90631 12.1334 10.7501 12.1334C12.5939 12.1334 14.0886 13.6281 14.0886 15.4719V20.3152H7.41162V15.4719Z" stroke="#868686" stroke-width="1.5" stroke-linejoin="round"/>
<path d="M8.65149 7.97723H12.8484" stroke="#868686" stroke-width="1.5" stroke-linecap="round" stroke-linejoin="round"/>
</svg>
