<svg width="20" height="22" viewBox="0 0 20 22" fill="none" xmlns="http://www.w3.org/2000/svg">
<path d="M18.5933 14.6834V9.69154C18.5933 5.40164 18.5933 3.25869 17.2754 1.92572C15.9574 0.59375 13.8354 0.59375 9.59354 0.59375C5.35064 0.59375 3.22969 0.59375 1.91172 1.92572C0.59375 3.25869 0.59375 5.40364 0.59375 9.69154V14.6844C0.59375 17.7803 0.59375 19.3293 1.32773 20.0053C1.67772 20.3283 2.11971 20.5313 2.5907 20.5853C3.57768 20.6983 4.73065 19.6783 7.0356 17.6394C8.05558 16.7384 8.56456 16.2874 9.15355 16.1694C9.44354 16.1094 9.74354 16.1094 10.0335 16.1694C10.6235 16.2874 11.1325 16.7384 12.1515 17.6394C14.4564 19.6783 15.6094 20.6983 16.5964 20.5843C17.0664 20.5313 17.5094 20.3283 17.8593 20.0053C18.5933 19.3293 18.5933 17.7803 18.5933 14.6834Z" stroke="#1E1E1E" stroke-width="1.1875"/>
</svg>
